<svg xmlns="http://www.w3.org/2000/svg" width="1200" height="630" viewBox="0 0 1200 630">
  <defs>
    <linearGradient id="bg" x1="0" y1="0" x2="1" y2="1">
      <stop offset="0%" stop-color="#020617" />
      <stop offset="100%" stop-color="#0f172a" />
    </linearGradient>
    <linearGradient id="card" x1="0" y1="0" x2="1" y2="1">
      <stop offset="0%" stop-color="#22c55e" />
      <stop offset="100%" stop-color="#10b981" />
    </linearGradient>
  </defs>
  <rect width="1200" height="630" fill="url(#bg)" />
  <circle cx="950" cy="110" r="160" fill="#22c55e" opacity="0.08" />
  <circle cx="170" cy="80" r="120" fill="#10b981" opacity="0.08" />
  <rect x="90" y="90" width="1020" height="450" rx="36" fill="#0b1220" stroke="#1e293b" />
  <rect x="740" y="165" width="240" height="180" rx="26" fill="#111827" stroke="#334155" />
  <rect x="150" y="180" width="430" height="30" rx="15" fill="#22c55e" opacity="0.18" />
  <rect x="150" y="235" width="540" height="80" rx="20" fill="#0f172a" />
  <rect x="150" y="345" width="470" height="22" rx="11" fill="#334155" />
  <rect x="150" y="385" width="400" height="22" rx="11" fill="#334155" />
  <rect x="150" y="440" width="210" height="52" rx="20" fill="url(#card)" />
  <text x="150" y="150" fill="#86efac" font-family="Inter, Arial, sans-serif" font-size="28" font-weight="700">Portfolio E-commerce Frontend</text>
  <text x="150" y="295" fill="#ffffff" font-family="Inter, Arial, sans-serif" font-size="62" font-weight="800">StoreFront</text>
  <text x="150" y="520" fill="#cbd5e1" font-family="Inter, Arial, sans-serif" font-size="24">React • Vite • Tailwind • Redux Toolkit • FakeStoreAPI</text>
  <text x="792" y="260" fill="#ffffff" font-family="Inter, Arial, sans-serif" font-size="34" font-weight="800">Ready to Deploy</text>
  <text x="792" y="305" fill="#cbd5e1" font-family="Inter, Arial, sans-serif" font-size="20">Routing • Cart • Wishlist • Checkout</text>
</svg>
